<svg width="274" height="40" viewBox="0 0 274 40" fill="none" xmlns="http://www.w3.org/2000/svg">
<g clip-path="url(#clip0_17_1831)">
<path d="M0 1.99892H11.9676C15.6748 1.99892 18.4569 2.50045 20.3141 3.49633C22.1713 4.49937 23.0963 6.18305 23.0963 8.55454C23.0963 12.2085 20.8949 14.3937 16.4922 15.1173V15.1961C21.8271 15.8624 24.5017 18.1838 24.5017 22.153C24.5017 25.0618 23.4046 27.0965 21.2176 28.25C19.0306 29.4107 15.8827 29.991 11.7668 29.991H0V29.2316H2.6029V2.75837H0V1.99892ZM10.4116 2.75837V15.0815H11.4513C12.8352 15.0815 13.8033 14.6588 14.3554 13.8205C14.9003 12.9823 15.1728 11.6926 15.1728 9.9588V8.08167C15.1728 6.11141 14.9362 4.72864 14.4558 3.94053C13.9753 3.15243 13.0575 2.75837 11.6951 2.75837H10.4116ZM10.4116 15.8409V29.2388H12.2903C13.7602 29.2388 14.7856 28.7301 15.3736 27.7199C15.9616 26.7097 16.2556 25.2122 16.2556 23.242V21.1213C16.2556 19.3588 15.897 18.0405 15.1728 17.1592C14.4486 16.278 13.1722 15.8409 11.3294 15.8409H10.4116Z" fill="#391E00"/>
<path d="M49.3619 29.9982H40.2338L39.7964 27.0751C39.3662 28.1426 38.7352 28.9593 37.8962 29.5325C37.0573 30.1057 35.8096 30.3923 34.1532 30.3923C30.0158 30.3923 27.9507 28.1641 27.9507 23.7148V11.6711H25.7063V10.9475H35.3937V24.6677C35.3937 26.2655 35.5084 27.3186 35.7307 27.8273C35.9602 28.336 36.4119 28.5868 37.0931 28.5868C37.7743 28.5868 38.3838 28.1712 38.9144 27.3473C39.445 26.5234 39.7175 25.377 39.7175 23.9083V11.6711H37.8747V10.9475H47.1605V29.2674H49.3619V29.9839V29.9982ZM31.1057 6.79921C30.6253 6.21171 30.3887 5.50958 30.3887 4.67849C30.3887 3.84739 30.6468 3.15959 31.1703 2.60075C31.6937 2.04191 32.4108 1.76249 33.3286 1.76249C34.2464 1.76249 34.985 2.00609 35.5299 2.50045C36.0749 2.99481 36.3474 3.7041 36.3474 4.64267C36.3474 5.58123 36.0892 6.31918 35.5658 6.86369C35.0423 7.4082 34.2894 7.68046 33.3071 7.68046C32.3247 7.68046 31.5862 7.38671 31.1057 6.79921ZM38.8355 6.79921C38.3551 6.21171 38.1185 5.50958 38.1185 4.67849C38.1185 3.84739 38.3766 3.15959 38.9001 2.60075C39.4235 2.04191 40.1406 1.76249 41.0584 1.76249C41.9762 1.76249 42.7148 2.00609 43.2598 2.50045C43.8047 2.99481 44.0772 3.7041 44.0772 4.64267C44.0772 5.58123 43.8191 6.31918 43.2956 6.86369C42.7722 7.4082 42.0193 7.68046 41.0369 7.68046C40.0545 7.68046 39.316 7.38671 38.8355 6.79921Z" fill="#391E00"/>
<path d="M66.2198 8.87695L67.3384 8.19631C67.4961 7.37238 67.1806 6.95683 66.3775 6.95683C65.2302 6.95683 64.6566 7.83808 64.6566 9.60057C64.6566 10.2955 64.7498 11.0908 64.9362 12.0007C66.9655 13.362 67.9766 15.103 67.9766 17.2237C67.9766 19.3444 67.2452 20.9923 65.7752 22.1673C64.3052 23.3423 62.319 23.9298 59.8093 23.9298C58.7696 23.9298 57.6869 23.8223 56.5682 23.6074C55.3923 24.3525 54.8043 24.9113 54.8043 25.2839C54.8043 25.6565 55.6576 25.8427 57.3642 25.8427H61.4442C67.5033 25.8427 70.5293 28.0136 70.5293 32.3625C70.5293 34.7054 69.6114 36.5681 67.7829 37.9438C65.9545 39.3194 63.1078 40.0072 59.2357 40.0072C52.646 40.0072 49.3475 38.5814 49.3475 35.7299C49.3475 34.1823 50.3729 33.1148 52.4309 32.5273L54.833 33.6092C54.6179 34.3829 54.5103 35.1137 54.5103 35.8087C54.5103 38.1014 56.2169 39.2477 59.6372 39.2477C61.7167 39.2477 63.3229 38.8608 64.4415 38.087C65.5601 37.3133 66.1266 36.3532 66.1266 35.2069C66.1266 34.0605 65.7895 33.2939 65.1083 32.907C64.4271 32.5201 63.0719 32.3267 61.0427 32.3267H57.1562C54.9979 32.3267 53.4491 31.9685 52.5097 31.2448C51.5776 30.5212 51.1115 29.64 51.1115 28.5868C51.1115 27.5336 51.4413 26.6523 52.1154 25.943C52.7822 25.2337 53.9725 24.3597 55.6791 23.3208C52.5814 22.4395 51.0326 20.412 51.0326 17.238C51.0326 15.2391 51.7497 13.6271 53.1909 12.3948C54.6322 11.1696 56.7905 10.5535 59.6731 10.5535C61.4084 10.5535 62.8855 10.8902 64.1188 11.5565C63.9611 10.8329 63.8822 10.1809 63.8822 9.59341C63.8822 8.10317 64.2837 7.02131 65.0797 6.35501C65.8828 5.6887 66.7719 5.35196 67.7614 5.35196C68.751 5.35196 69.5397 5.60989 70.142 6.1329C70.7444 6.65592 71.0455 7.36522 71.0455 8.27512C71.0455 9.18503 70.8089 9.8585 70.3285 10.2955C69.8481 10.7326 69.2672 10.9547 68.586 10.9547C67.9048 10.9547 67.3455 10.7756 66.9081 10.4173C66.4707 10.0591 66.2341 9.54326 66.2054 8.87695H66.2198ZM57.7299 16.364V18.5277C57.7299 20.3117 57.8805 21.5296 58.1888 22.1673C58.4971 22.8049 58.9632 23.1273 59.587 23.1273C60.2109 23.1273 60.6698 22.8121 60.9494 22.1888C61.2291 21.5655 61.3725 20.2758 61.3725 18.3271V16.364C61.3725 14.2862 61.2363 12.9178 60.971 12.2658C60.7056 11.6138 60.2539 11.2843 59.6301 11.2843C59.0062 11.2843 58.5258 11.621 58.2103 12.3016C57.8876 12.9823 57.7299 14.3364 57.7299 16.364Z" fill="#391E00"/>
<path d="M70.9021 10.9618H80.7114V29.2817H82.9558V29.9982H71.067V29.2817H73.2684V11.6783H70.9093V10.9547L70.9021 10.9618Z" fill="#391E00"/>
<path d="M83.8306 10.9618H93.4821V14.6445C93.9052 13.4193 94.5649 12.4306 95.4468 11.6855C96.3288 10.9404 97.6625 10.5678 99.448 10.5678C103.585 10.5678 105.65 12.796 105.65 17.2452V29.2889H107.895V30.0054H96.5654V29.2889H98.2075V16.2852C98.2075 14.6874 98.0999 13.6486 97.8848 13.1829C97.6697 12.7172 97.2825 12.4807 96.7232 12.4807C95.8699 12.4807 95.117 13.0396 94.4573 14.1573C93.7976 15.2749 93.4749 16.6362 93.4749 18.2339V29.2746H95.1959V29.991H83.8234V29.2746H86.0248V11.6711H83.8234V10.9475L83.8306 10.9618Z" fill="#391E00"/>
<path d="M109.336 11.9219L108.978 11.3631C111.459 9.7367 112.699 8.11034 112.699 6.48397C112.699 5.63138 112.341 5.15135 111.616 5.04388L109.938 6.60577C109.401 6.41949 108.92 6.08275 108.476 5.58839C108.038 5.09404 107.816 4.46355 107.816 3.68977C107.816 2.916 108.124 2.25685 108.734 1.71234C109.35 1.16783 110.154 0.895576 111.157 0.895576C112.161 0.895576 112.986 1.23231 113.638 1.91295C114.291 2.59359 114.621 3.53215 114.621 4.73581C114.621 7.35089 112.857 9.75103 109.336 11.9362V11.9219Z" fill="#391E00"/>
<path d="M149.09 1.99892L149.491 12.0365H148.731C147.555 8.49006 146.515 6.06842 145.612 4.77879C144.701 3.482 143.396 2.83718 141.69 2.83718H141.209V29.1599H144.615V29.9982H130.002V29.1599H133.408V2.83718H132.884C131.178 2.83718 129.858 3.51066 128.919 4.8576C127.987 6.20455 126.954 8.59753 125.836 12.0365H125.075L125.477 1.99892H149.097H149.09Z" fill="#391E00"/>
<path d="M151.75 27.7414C150.029 25.9717 149.168 23.4999 149.168 20.3403C149.168 17.1807 150.136 14.7591 152.072 13.0826C154.008 11.3989 156.468 10.5606 159.458 10.5606C165.517 10.5606 168.428 13.5984 168.185 19.6812H156.891V21.2431C156.891 23.8581 157.221 25.8284 157.895 27.161C158.562 28.4936 159.723 29.16 161.38 29.16C164.477 29.16 166.507 27.5049 167.468 24.202L168.185 24.3238C167.676 26.244 166.765 27.7414 165.438 28.8017C164.119 29.8692 162.133 30.3994 159.494 30.3994C156.052 30.3994 153.471 29.511 151.75 27.7414ZM156.934 18.8787H161.057V16.9156C161.057 14.7519 160.928 13.2832 160.677 12.4951C160.426 11.707 159.917 11.3129 159.157 11.3129C158.397 11.3129 157.838 11.7356 157.479 12.5739C157.12 13.4121 156.941 14.8594 156.941 16.9156V18.8787H156.934Z" fill="#391E00"/>
<path d="M169.705 10.9618H179.356V14.6445C179.779 13.4193 180.439 12.4306 181.321 11.6855C182.203 10.9404 183.537 10.5678 185.322 10.5678C189.46 10.5678 191.525 12.796 191.525 17.2452V29.2889H193.769V30.0054H182.44V29.2889H184.082V16.2852C184.082 14.6874 183.974 13.6486 183.759 13.1829C183.544 12.7172 183.157 12.4807 182.597 12.4807C181.744 12.4807 180.991 13.0396 180.331 14.1573C179.672 15.2749 179.349 16.6362 179.349 18.2339V29.2746H181.07V29.991H169.698V29.2746H171.899V11.6711H169.698V10.9475L169.705 10.9618Z" fill="#391E00"/>
<path d="M207.902 29.9982L207.465 27.1968C206.554 29.3319 204.718 30.3994 201.936 30.3994C199.642 30.3994 197.856 29.5755 196.594 27.9205C195.325 26.2654 194.694 23.8008 194.694 20.5194C194.694 13.8778 197.34 10.5606 202.625 10.5606C204.969 10.5606 206.518 11.2126 207.271 12.5237V0.716461H204.826V0H214.836V29.2817H216.801V29.9982H207.909H207.902ZM202.854 27.3043C203.148 28.2214 203.686 28.6871 204.475 28.6871C205.263 28.6871 205.945 28.3432 206.518 27.6482C207.092 26.9532 207.379 25.9287 207.379 24.5674V15.8481C207.379 14.7018 207.149 13.7274 206.697 12.9249C206.246 12.1225 205.579 11.7285 204.697 11.7285C203.815 11.7285 203.213 12.316 202.897 13.491C202.574 14.6659 202.417 16.715 202.417 19.6525V21.7302C202.417 24.5316 202.56 26.3872 202.854 27.3115V27.3043Z" fill="#391E00"/>
<path d="M220.608 27.7414C218.887 25.9717 218.027 23.4999 218.027 20.3403C218.027 17.1807 218.995 14.7591 220.931 13.0826C222.867 11.3989 225.326 10.5606 228.317 10.5606C234.376 10.5606 237.287 13.5984 237.043 19.6812H225.75V21.2431C225.75 23.8581 226.079 25.8284 226.753 27.161C227.42 28.4936 228.582 29.16 230.238 29.16C233.336 29.16 235.365 27.5049 236.326 24.202L237.043 24.3238C236.534 26.244 235.623 27.7414 234.297 28.8017C232.977 29.8692 230.991 30.3994 228.352 30.3994C224.911 30.3994 222.329 29.511 220.608 27.7414ZM225.793 18.8787H229.916V16.9156C229.916 14.7519 229.787 13.2832 229.536 12.4951C229.285 11.707 228.776 11.3129 228.015 11.3129C227.255 11.3129 226.696 11.7356 226.338 12.5739C225.979 13.4121 225.8 14.8594 225.8 16.9156V18.8787H225.793Z" fill="#391E00"/>
<path d="M251.857 12.0795C250.868 12.0795 250 12.7172 249.255 13.9996C248.509 15.2821 248.136 16.801 248.136 18.5563V29.2746H250.975V29.991H238.484V29.2746H240.686V11.6711H238.484V10.9475H248.136V14.7877C248.48 13.4265 249.147 12.3804 250.137 11.6497C251.126 10.9189 252.245 10.5463 253.499 10.5463C254.754 10.5463 255.773 10.8974 256.561 11.6067C257.35 12.316 257.744 13.3118 257.744 14.6086C257.744 15.9054 257.45 16.8941 256.862 17.5891C256.274 18.2841 255.371 18.628 254.159 18.628C252.947 18.628 252.051 18.2268 251.477 17.4243C250.904 16.6219 250.832 15.5185 251.255 14.1071H252.696C253.363 12.7458 253.084 12.0652 251.857 12.0652V12.0795Z" fill="#391E00"/>
<path d="M258.741 30.3994V23.242H259.222C259.917 25.5633 260.849 27.1897 262.025 28.1211C263.201 29.0525 264.664 29.5182 266.428 29.5182C269.153 29.5182 270.515 28.6513 270.515 26.9174C270.515 26.1723 270.178 25.6135 269.511 25.2409C268.472 24.6534 267.138 24.202 265.51 23.8796C263.696 23.3996 262.176 22.762 260.943 21.9595C259.473 20.9995 258.741 19.4806 258.741 17.3957C258.741 15.3108 259.379 13.6557 260.663 12.4163C261.946 11.1768 263.653 10.5535 265.79 10.5535C267.095 10.5535 268.443 10.8615 269.834 11.4705C270.343 11.6855 270.73 11.7929 270.996 11.7929C271.261 11.7929 271.49 11.6998 271.677 11.5135C271.863 11.3272 272.093 10.9833 272.358 10.4747H272.795V16.5932H272.315C270.953 13.1256 268.844 11.3917 265.991 11.3917C264.736 11.3917 263.804 11.6138 263.187 12.0509C262.57 12.4879 262.269 13.0467 262.269 13.7131C262.269 14.1143 262.362 14.4295 262.549 14.6516C262.735 14.8809 262.879 15.0457 262.986 15.1531C263.094 15.2606 263.266 15.3752 263.51 15.4899C263.753 15.6045 263.947 15.7048 264.112 15.7693C264.27 15.8338 264.521 15.9198 264.85 16.0272C265.18 16.1347 265.431 16.1992 265.589 16.2278C267.403 16.6792 268.715 17.0733 269.511 17.41C270.314 17.7467 271.074 18.1479 271.792 18.628C273.261 19.6454 273.993 21.2717 273.993 23.5286C273.993 25.7854 273.326 27.4906 271.992 28.6513C270.659 29.8119 268.83 30.3923 266.507 30.3923C264.85 30.3923 263.251 30.0054 261.703 29.2316C261.38 29.0167 261.129 28.9092 260.943 28.9092C260.355 28.9092 259.781 29.4035 259.222 30.3923H258.741V30.3994Z" fill="#391E00"/>
</g>
<defs>
<clipPath id="clip0_17_1831">
<rect width="274" height="40" fill="white"/>
</clipPath>
</defs>
</svg>
