<svg width="216" height="137" viewBox="0 0 216 137" fill="none" xmlns="http://www.w3.org/2000/svg">
<g clip-path="url(#clip0_82_258)">
<path d="M32.0064 70.2595C31.2184 70.9613 29.37 72.901 29.37 72.901C29.37 72.901 30.6055 71.5364 31.1309 70.9613C31.6562 70.3764 32.1913 69.7916 32.8917 69.0215C34.137 67.6471 35.1779 66.5944 36.1507 65.6587C37.1236 64.7229 38.0186 63.9236 38.9914 63.1146C39.9643 62.3056 40.9955 61.4965 42.2407 60.629C43.2233 59.5665 44.0405 58.6795 44.7993 57.851C45.5581 57.0225 46.2683 56.2524 47.0368 55.4336C47.8054 54.6149 48.6128 53.7181 49.5954 52.6556C50.8309 51.8271 51.8621 51.2325 52.8155 50.7256C53.7786 50.2188 54.6639 49.8094 55.627 49.4195C56.5901 49.0296 57.6214 48.6689 58.8471 48.3473C57.8451 49.3805 57.0182 50.248 56.2399 51.057C55.4616 51.8661 54.7417 52.6166 53.9635 53.4257C53.1852 54.2347 52.3583 55.1022 51.3563 56.1355C52.6988 55.7358 53.8175 55.5116 54.8488 55.3557C55.8897 55.1997 56.8431 55.1217 57.8646 55.0925C58.886 55.0632 59.9756 55.0925 61.2695 55.2484C62.4661 55.3849 63.5265 55.5214 64.4799 55.5993C65.4333 55.6676 66.2699 55.6773 67.0093 55.5701C67.7486 55.4726 68.4783 55.2387 69.2079 54.8683C69.9375 54.4979 70.6672 53.9813 71.3871 53.3184C72.3113 52.4802 72.9922 51.6711 73.4203 50.9108C73.8483 50.1505 74.1402 49.4097 74.2667 48.6982C75.4438 49.1076 76.4069 49.5267 77.2922 49.9556C78.1775 50.3845 78.9849 50.8134 79.8411 51.3202C80.6972 51.8271 81.6019 52.4119 82.6526 53.1722C82.351 54.0203 81.7867 55.034 80.9695 56.1939C80.1524 57.3539 79.1406 58.4261 77.9537 59.4106C76.8739 60.3073 75.7746 61.0384 74.6558 61.594C73.537 62.1594 72.4085 62.559 71.2606 62.8124C70.1029 63.0659 68.9355 63.1926 67.7486 63.2121C66.552 63.2316 65.336 63.1536 64.0713 62.9976C62.8163 62.8417 61.5419 62.6467 60.2383 62.4323C58.9444 62.2178 57.6214 61.9839 56.2691 61.7695C54.8196 61.5453 53.5841 61.4868 52.4166 61.4965C51.259 61.5063 50.1597 61.594 48.9825 61.7792C47.7956 61.9644 46.5212 62.2373 44.9841 62.7345C44.2642 63.485 43.7194 64.0504 43.1747 64.6157C42.6299 65.1811 42.0851 65.7464 41.3652 66.497C40.3242 66.8479 39.5362 67.1793 38.7482 67.5302C37.9602 67.8811 37.1722 68.271 36.1118 68.8656C36.4231 67.9688 36.5788 67.5399 36.8706 66.7601C35.8783 67.2767 35.0417 67.8226 34.2634 68.3782C33.4852 68.9436 32.7555 69.5284 31.9772 70.24L32.0064 70.2595ZM60.2869 45.735C58.4483 45.6375 57.5338 45.4328 57.5727 44.6335C57.5922 44.2339 57.8548 43.688 58.3704 42.9667C58.886 42.2454 59.6449 41.3389 60.6566 40.2472C61.3571 39.4869 62.1256 38.6876 62.9623 37.8688C63.7989 37.05 64.7036 36.1922 65.6862 35.3345C66.659 34.4669 67.7097 33.5897 68.8285 32.7221C69.9473 31.8546 71.1147 31.0066 72.3404 30.2073C73.5662 29.408 74.8406 28.6477 76.1637 27.9752C77.4868 27.2928 78.8682 26.6982 80.308 26.2011C81.7381 25.7138 83.2071 25.3336 84.6955 25.1094C86.184 24.8852 87.6919 24.8072 89.229 24.9047C90.7563 25.0022 92.3032 25.2654 93.8597 25.7235C93.1982 26.3473 92.5755 26.9517 91.9821 27.517C91.3887 28.0921 90.8147 28.638 90.2602 29.1643C89.1511 30.2171 88.1297 31.2016 87.1276 32.1568C86.1256 33.112 85.1528 34.0381 84.1605 34.9933C83.1584 35.9485 82.137 36.9233 81.0279 37.9858C80.4637 38.5219 79.88 39.0872 79.2671 39.6721C79.6757 39.6721 80.0843 39.6721 80.4831 39.6526C81.5046 39.6136 82.4872 39.5258 83.46 39.3699C84.4231 39.2139 85.3668 38.98 86.2813 38.6778C87.1957 38.3659 88.0713 37.976 88.9079 37.4789C89.7446 36.9915 90.5423 36.3969 91.3011 35.7049C91.9918 35.0713 92.6047 34.4085 93.1301 33.6969C93.6554 32.9853 94.0932 32.2445 94.4434 31.455C95.1438 29.8856 95.426 28.3163 95.2703 26.8152C96.9047 27.4098 98.1207 27.9752 99.3173 28.5892C100.514 29.2033 101.701 29.8759 103.238 30.8896C103.364 31.9911 103.345 33.0926 103.17 34.1745C102.995 35.2565 102.674 36.3189 102.216 37.3619C101.759 38.4049 101.156 39.3894 100.426 40.3154C99.6967 41.2511 98.8309 42.1284 97.8386 42.9472C96.6518 43.9317 95.3676 44.7212 93.9764 45.3353C92.5853 45.9494 91.0968 46.3783 89.5014 46.6707C88.441 46.8657 87.3514 46.9924 86.2521 47.0704C85.143 47.1483 84.0243 47.1678 82.8666 47.1483C81.7186 47.1288 80.5415 47.0704 79.3254 46.9924C78.1191 46.9144 76.9128 46.8072 75.7065 46.6902C74.5002 46.5732 73.2938 46.4465 72.0875 46.3198C70.8812 46.2028 69.6651 46.0859 68.4491 45.9981C66.659 45.8714 65.083 45.8324 63.7211 45.8032C62.3591 45.7739 61.2209 45.7739 60.2967 45.7252L60.2869 45.735ZM70.1029 39.019C70.4726 39.1067 70.9104 39.1749 71.3968 39.2334C72.0389 38.5803 72.642 37.9663 73.2257 37.3814C74.2375 36.3579 75.1617 35.4222 76.0956 34.4767C77.0295 33.5312 77.9537 32.5954 78.9655 31.572C79.2768 31.26 79.5978 30.9384 79.9189 30.607C79.0822 30.7337 78.265 30.9286 77.4868 31.1626C76.6501 31.4257 75.8621 31.7279 75.1228 32.0691C74.3834 32.4102 73.6927 32.7904 73.0409 33.1803C71.7567 33.9698 70.6866 34.8373 69.8305 35.7341C68.8966 36.7088 68.4783 37.4302 68.5658 37.9468C68.6534 38.4536 69.169 38.7753 70.0932 38.9995L70.1029 39.019ZM80.3761 23.2866C81.4171 22.8967 82.4677 22.5556 83.6059 22.2632C84.7442 21.9707 85.9699 21.7076 87.3708 21.5224C88.9955 21.4444 90.4937 21.5224 91.8848 21.6978C93.2857 21.8733 94.5893 22.1364 95.8346 22.4776C97.0895 22.809 98.2861 23.2184 99.473 23.696C100.66 24.1737 101.837 24.7098 103.043 25.3531C104.25 25.9867 105.485 26.7177 106.769 27.5755C107.411 28.0044 108.073 28.4723 108.754 28.9694C109.435 29.4763 110.126 30.0221 110.836 30.607C112.227 29.4373 113.268 28.5697 114.309 27.6925C115.35 26.8152 116.391 25.9379 117.782 24.778C116.974 24.0957 116.196 23.4718 115.437 22.9065C114.679 22.3411 113.949 21.8148 113.239 21.3372C111.809 20.3819 110.456 19.5826 109.124 18.8808C107.791 18.179 106.477 17.5844 105.115 17.058C103.753 16.5317 102.343 16.0833 100.825 15.7226C100.67 15.6837 100.504 15.6544 100.339 15.6154C98.3542 15.1865 96.8074 14.8356 95.6984 14.436C94.5893 14.0266 93.9667 13.588 93.8305 12.9934C93.6943 12.389 94.0543 11.658 94.9298 10.7515C95.5622 10.0886 96.3113 9.4843 97.1771 8.93844C98.0429 8.39259 99.0255 7.91496 100.135 7.53481C101.244 7.15466 102.43 6.90123 103.715 6.80376C104.999 6.70628 106.361 6.78426 107.81 7.08643C108.793 7.29113 109.717 7.53481 110.593 7.80774C111.468 8.07092 112.295 8.37309 113.083 8.67526C113.871 8.98718 114.64 9.30884 115.379 9.65975C116.118 10.0009 116.838 10.3713 117.558 10.7612C118.278 11.1511 118.988 11.5605 119.718 11.9991C120.447 12.4378 121.177 12.9154 121.926 13.4418C122.685 13.9584 123.463 14.5237 124.271 15.1475C125.078 15.7714 125.925 16.4537 126.81 17.2237C128.201 16.0541 129.242 15.1865 130.283 14.3093C131.324 13.432 132.365 12.5645 133.756 11.3948C132.958 10.693 132.18 10.0496 131.431 9.45505C130.682 8.86046 129.962 8.31461 129.261 7.80774C127.851 6.79401 126.528 5.93624 125.214 5.16619C123.911 4.39614 122.617 3.72357 121.294 3.10948C119.961 2.4954 118.589 1.93979 117.101 1.46217C116.362 1.21848 115.593 0.994294 114.786 0.799345C113.978 0.604397 113.141 0.428944 112.256 0.282732C110.991 0.0780364 109.756 0.00980442 108.54 0.0487941C107.324 0.0877838 106.137 0.243743 104.979 0.487428C103.812 0.731114 102.683 1.07227 101.574 1.49141C100.465 1.91055 99.3952 2.39792 98.364 2.93403C97.3327 3.47014 96.3502 4.05498 95.3968 4.67882C94.4434 5.30265 93.5387 5.94598 92.6631 6.61856C91.3498 7.62254 90.1629 8.63627 89.0928 9.62076C88.0226 10.6053 87.0693 11.5605 86.2326 12.467C84.822 13.9974 84.2188 14.9331 84.4329 15.4692C84.6469 15.9956 85.6976 16.0736 87.6238 16.21C87.7697 16.2198 87.9351 16.2295 88.1005 16.2393C87.974 16.2782 87.8475 16.3075 87.7211 16.3465C86.5147 16.7169 85.3084 17.1653 84.0145 17.7404C82.7207 18.3252 81.3295 19.0368 79.7632 20.0115C78.5083 21.3762 77.5646 22.3899 76.6209 23.4134C75.6773 24.4368 74.7336 25.4603 73.4787 26.8152C74.8406 25.9379 76.047 25.2654 77.1657 24.7098C78.2845 24.1542 79.3254 23.7058 80.3664 23.3061L80.3761 23.2866ZM22.171 84.7441C23.0757 84.208 23.9805 83.7109 24.9533 83.2235C25.9262 82.7362 26.9671 82.2683 28.154 81.8102C29.5549 81.3715 30.8196 81.0986 31.987 80.9231C33.1544 80.7477 34.2342 80.6795 35.2557 80.6795C36.2772 80.6795 37.25 80.7477 38.2034 80.8842C39.1568 81.0206 40.0907 81.2156 41.0344 81.4787C41.9781 81.7419 42.9314 82.0831 43.9237 82.5217C44.9063 82.9604 45.9278 83.4965 46.9785 84.169C48.3696 82.9993 49.4106 82.1318 50.4515 81.2546C51.4924 80.3773 52.5334 79.5 53.9246 78.3401C52.8642 77.6285 51.8427 77.0632 50.8504 76.5855C49.8678 76.1079 48.9047 75.7375 47.9708 75.4256C47.0271 75.1137 46.1029 74.8797 45.1592 74.7043C44.2837 74.5386 43.379 74.4314 42.445 74.3729C42.445 74.3729 42.4548 74.3729 42.4645 74.3729C41.2776 74.2949 40.2464 74.2657 39.3903 74.2267C38.5342 74.1877 37.8435 74.1389 37.3376 74.0415C36.3259 73.8465 35.8492 73.5443 35.9562 72.9595C36.0632 72.3746 36.5691 71.6241 37.4835 70.6786C37.9408 70.201 38.4953 69.6649 39.1471 69.0605C39.7989 68.4562 40.548 67.7934 41.4041 67.0721C40.0518 67.4912 38.9233 67.9493 37.8532 68.4367C36.7928 68.9241 35.8005 69.4407 34.7304 70.0743C33.6603 70.7078 32.5123 71.4584 31.1211 72.4916C30.5958 73.0082 30.1094 73.4956 29.6619 73.9635C29.2144 74.4216 28.8155 74.8407 28.475 75.2209C27.2687 76.5271 26.7434 77.2484 26.8698 77.4531C26.9963 77.6675 27.6092 77.5213 28.6988 77.1899C29.2436 77.0242 29.8662 76.839 30.5666 76.6538C31.0044 76.5368 31.4908 76.4198 31.987 76.3029C31.9383 76.3224 31.88 76.3516 31.8313 76.3711C30.8001 76.8292 29.837 77.3068 28.8739 77.8332C27.9108 78.3596 26.9477 78.9347 25.897 79.6267C24.8463 80.3188 23.7081 81.1181 22.4045 82.1318C21.1301 83.516 20.1767 84.5492 19.2136 85.5824C18.2602 86.6156 17.2971 87.6586 16.0226 89.033C17.2582 88.0388 18.338 87.259 19.3303 86.5669C20.3226 85.8846 21.2371 85.2997 22.1418 84.7539L22.171 84.7441ZM2.004 106.812C0.535012 107.222 -0.145977 107.319 0.0291343 106.705C0.11669 106.403 0.427999 105.925 0.972791 105.243C1.51758 104.561 2.28613 103.674 3.29788 102.582C3.99833 101.822 4.75714 101.013 5.58406 100.174C6.41097 99.3263 7.28653 98.449 8.23019 97.5425C9.17384 96.636 10.1759 95.6905 11.2363 94.745C12.2967 93.7995 13.396 92.854 14.5342 91.9377C15.6724 91.0215 16.8496 90.1345 18.0559 89.2962C19.2622 88.4579 20.5074 87.6684 21.7819 86.9568C23.0563 86.2452 24.3307 85.6311 25.6149 85.1243C26.899 84.6174 28.1734 84.2275 29.4479 83.9838C30.7223 83.7304 31.987 83.6134 33.2322 83.6524C32.5707 84.2763 31.9481 84.8806 31.3546 85.4459C30.7612 86.0113 30.1872 86.5669 29.6327 87.0933C28.5237 88.146 27.5022 89.1305 26.5002 90.0857C25.4981 91.041 24.5253 91.967 23.533 92.9222C22.531 93.8775 21.5095 94.8522 20.4004 95.9147C19.8362 96.4508 19.2525 97.0161 18.6396 97.601C18.9801 97.5035 19.3206 97.4158 19.6513 97.3183C20.5074 97.0551 21.3538 96.7724 22.1905 96.441C23.0271 96.1096 23.854 95.7295 24.6809 95.3006C25.5079 94.8619 26.3153 94.3746 27.1033 93.819C27.8913 93.2634 28.6696 92.6395 29.4284 91.9572C30.1191 91.3236 30.7515 90.6803 31.3157 90.0272C31.88 89.3742 32.3761 88.7016 32.8042 88.0193C33.6505 86.6644 34.1467 85.3777 34.2634 84.2275C35.5573 84.364 36.501 84.5589 37.4154 84.8026C38.3396 85.0463 39.2444 85.3387 40.3923 85.8358C40.3242 86.6741 40.1199 87.5319 39.7989 88.4092C39.4779 89.2864 39.0206 90.1734 38.4466 91.0605C37.8727 91.9475 37.1917 92.8247 36.4037 93.6825C35.6157 94.5403 34.7207 95.3786 33.7284 96.2071C32.5415 97.1916 31.306 98.0494 30.0121 98.7902C28.7182 99.531 27.3757 100.165 25.9748 100.72C25.0409 101.091 24.0972 101.412 23.1536 101.705C22.2099 101.997 21.2565 102.25 20.2934 102.494C19.3303 102.728 18.3575 102.952 17.3652 103.157C16.3729 103.371 15.3903 103.566 14.4077 103.752C13.4252 103.947 12.4523 104.132 11.4795 104.327C10.5066 104.522 9.5338 104.726 8.55123 104.97C7.11142 105.311 5.837 105.682 4.73769 106.003C3.63838 106.335 2.71418 106.627 1.98455 106.832L2.004 106.812ZM11.1974 99.2483C11.4795 99.2288 11.8297 99.1703 12.2188 99.1021C12.8609 98.449 13.4738 97.8349 14.0478 97.2501C15.0595 96.2266 15.9837 95.2908 16.9177 94.3453C17.8516 93.3998 18.7758 92.4641 19.7875 91.4406C20.0989 91.1287 20.4102 90.807 20.7409 90.4756C20.021 90.768 19.3109 91.0994 18.6299 91.4698C17.8905 91.8597 17.1901 92.2886 16.5188 92.7273C15.8475 93.1659 15.2152 93.624 14.6218 94.0822C13.4252 94.9984 12.4037 95.9244 11.5476 96.8212C10.6136 97.7959 10.1467 98.4587 10.1272 98.8194C10.1078 99.1898 10.4677 99.297 11.1974 99.2483ZM79.199 107.114C78.7417 107.66 78.2456 108.226 77.6716 108.801C77.1074 109.386 76.4653 109.98 75.7357 110.614C74.0235 111.462 72.7296 112.095 71.4454 112.729C70.1613 113.363 68.8674 113.996 67.1552 114.844C68.5658 113.665 69.5873 112.632 70.4629 111.657C71.0952 110.955 71.64 110.273 72.1459 109.561C71.4162 110.263 70.6769 110.945 69.9181 111.589C68.916 112.437 67.8946 113.226 66.8731 113.986C65.8516 114.747 64.8204 115.449 63.7989 116.111C63.0401 116.608 62.291 117.076 61.5711 117.515C60.8512 117.954 60.1507 118.363 59.4795 118.743C58.137 119.503 56.9209 120.147 55.8216 120.683C53.5549 121.794 52.3388 122.233 51.9983 121.96C51.6481 121.687 52.1345 120.761 52.9906 119.104C53.4187 118.275 53.9343 117.291 54.4791 116.141C55.0239 114.99 55.5978 113.684 56.1524 112.212C56.5318 111.208 56.8625 110.214 57.1738 109.22C57.4852 108.235 57.7673 107.251 58.0494 106.286C58.3315 105.321 58.6039 104.366 58.8958 103.42C59.3238 102.007 59.7519 100.662 60.2286 99.3848C60.7053 98.1078 61.2306 96.8992 61.8435 95.7587C62.4564 94.6183 63.1471 93.585 63.9545 92.6688C64.7523 91.7525 65.6667 90.9337 66.698 90.2417C67.6903 89.5691 68.6923 89.0915 69.6943 88.8186C70.6963 88.5456 71.7081 88.4676 72.6907 88.6041C73.6732 88.7406 74.6169 89.072 75.4827 89.5983C76.1929 90.037 76.8447 90.6121 77.4187 91.3041C77.3992 90.4951 77.3506 89.6958 77.2533 88.8673C77.1171 87.6294 76.8933 86.3037 76.4945 84.7539C78.0607 83.7109 79.2379 82.9214 80.415 82.1416C81.5922 81.3618 82.7693 80.5722 84.3356 79.5293C84.7053 80.8647 84.9485 82.0928 85.1333 83.2333C85.3182 84.3737 85.4154 85.4459 85.4641 86.4987C85.5127 87.5514 85.5127 88.5651 85.4543 89.6081C85.396 90.6511 85.2792 91.7233 85.0847 92.8637C84.8901 94.0042 84.5982 95.2226 84.1702 96.5677C83.9173 98.0883 83.5281 99.3945 83.0709 100.593C82.6136 101.792 82.0786 102.874 81.456 103.927C80.8334 104.99 80.1037 106.023 79.199 107.124V107.114ZM69.5873 109.59C70.2877 109.025 70.9882 108.411 71.6789 107.738C72.3696 107.066 73.0506 106.354 73.7024 105.574C74.3542 104.804 74.9574 104.005 75.4924 103.186C76.0275 102.367 76.4945 101.529 76.8933 100.671C76.9614 99.3165 76.6501 98.2346 76.047 97.4548C75.4438 96.675 74.6266 96.2168 73.683 96.0901C72.7393 95.9732 71.7081 96.2461 70.6477 96.8894C69.6359 97.5035 68.7507 98.3905 67.9529 99.5407C67.5541 100.116 67.1844 100.72 66.8439 101.354C66.5034 101.997 66.1824 102.67 65.8808 103.371C65.5695 104.073 65.2971 104.795 65.0247 105.516C64.762 106.237 64.5091 106.968 64.2659 107.709C63.7794 109.152 63.4195 110.292 63.2833 111.16C63.1471 112.017 63.2249 112.534 63.6238 112.709C64.0226 112.885 64.7328 112.709 65.8029 112.154C66.9217 111.579 68.2059 110.731 69.6068 109.59H69.5873ZM192.058 45.3256C191.961 44.2923 191.582 43.5613 190.998 43.1616C190.414 42.762 189.675 42.7912 188.809 43.2494C187.963 43.7075 187.165 44.5068 186.348 45.6375C185.54 46.7682 184.811 48.0646 184.091 49.4877C183.371 50.9108 182.739 52.3437 182.126 53.7376C181.513 55.1315 181.017 56.2524 180.725 57.1199C180.423 57.9875 180.345 58.5041 180.589 58.7185C180.822 58.933 181.357 58.816 182.223 58.3969C183.118 57.9582 184.169 57.2954 185.346 56.3791C186.523 55.4629 187.7 54.3809 188.799 53.0943C189.889 51.8076 190.764 50.4625 191.358 49.0393C191.951 47.6162 192.165 46.3588 192.068 45.3256H192.058ZM204.005 39.0775C203.878 38.015 203.479 37.245 202.876 36.8161C202.273 36.3872 201.524 36.4067 200.658 36.8746C199.812 37.3327 199.024 38.1417 198.226 39.3017C197.428 40.4616 196.728 41.7872 196.037 43.2494C195.347 44.7115 194.743 46.1736 194.15 47.6065C193.557 49.0393 193.099 50.1895 192.817 51.0863C192.535 51.9831 192.477 52.5192 192.72 52.7434C192.963 52.9675 193.498 52.8603 194.364 52.4314C195.259 51.9928 196.31 51.3202 197.467 50.3942C198.635 49.4682 199.802 48.3668 200.882 47.0509C201.952 45.735 202.808 44.3606 203.372 42.8985C203.937 41.4363 204.122 40.1497 204.005 39.0775ZM214.755 30.4705C214.142 30.0221 213.383 30.0221 212.507 30.49C211.661 30.9481 210.873 31.7766 210.105 32.9561C209.326 34.1355 208.645 35.4904 207.984 36.9915C207.322 38.4926 206.738 39.9937 206.174 41.4656C205.61 42.9374 205.172 44.1169 204.91 45.0331C204.647 45.9494 204.598 46.505 204.851 46.7389C205.104 46.9729 205.649 46.8754 206.505 46.4465C207.4 46.0079 208.441 45.3353 209.599 44.3898C210.756 43.4443 211.914 42.3331 212.965 40.9977C213.49 40.3251 213.967 39.6428 214.366 38.941C214.774 38.2294 215.115 37.5081 215.387 36.7576C215.932 35.2565 216.088 33.9308 215.932 32.8294C215.786 31.7279 215.358 30.9286 214.745 30.4802L214.755 30.4705ZM52.3388 116.219C52.5626 115.595 52.6307 115.059 52.5723 114.63C52.4556 113.772 51.6967 113.392 50.4321 113.509C49.7997 113.567 49.002 113.772 48.0486 114.133C47.0952 114.484 45.9959 115 44.7409 115.634C43.7486 116.141 42.9801 116.521 42.231 116.901C41.4819 117.281 40.7231 117.671 39.7211 118.168C38.5245 118.772 37.7267 119.055 37.3473 119.016C36.9679 118.977 36.822 118.714 36.8998 118.207C36.9971 117.554 37.4057 116.833 38.1451 116.033C38.8844 115.234 39.9448 114.406 41.336 113.538C42.5229 112.807 43.4957 112.349 44.2448 112.193C44.9939 112.037 45.5776 112.066 45.9667 112.29C46.3558 112.515 46.5796 112.895 46.6088 113.411C48.1945 112.466 49.3911 111.764 50.5877 111.052C51.7843 110.351 52.9712 109.639 54.5666 108.694C54.5958 107.758 54.4304 106.958 54.0997 106.315C53.7689 105.662 53.263 105.165 52.6209 104.814C51.9789 104.463 51.2201 104.258 50.364 104.21C49.5079 104.161 48.5642 104.258 47.5427 104.492C46.5212 104.736 45.4511 105.126 44.3421 105.652C43.233 106.179 42.0948 106.842 40.9177 107.641C39.7211 108.44 38.6315 109.269 37.6295 110.117C36.6274 110.965 35.7227 111.832 34.8958 112.719C34.0689 113.606 33.3392 114.493 32.7069 115.39C32.0745 116.287 31.52 117.184 31.0433 118.1C30.5666 119.006 30.1775 119.923 29.8565 120.829C29.5354 121.745 29.2825 122.662 29.0587 123.588C28.8933 124.27 28.7766 124.874 28.728 125.391C28.6793 125.907 28.689 126.346 28.7669 126.697C28.942 127.409 29.5354 127.682 30.6736 127.516C31.2379 127.438 31.9772 127.223 32.882 126.882C33.7867 126.541 34.8763 126.054 36.1313 125.449C37.6197 124.738 38.3785 124.377 39.8767 123.675C41.2971 123.003 42.2407 122.652 42.6688 122.613C43.0968 122.574 43.1066 122.847 42.6493 123.422C42.0753 124.153 41.1803 124.923 40.0129 125.713C38.8455 126.512 37.4349 127.321 35.8102 128.159C34.5553 128.802 33.5922 129.231 32.9306 129.456C32.2594 129.67 31.88 129.68 31.773 129.485C31.6562 129.28 31.7827 128.9 32.1232 128.315C30.4791 129.183 29.2533 129.836 28.0178 130.499C26.7823 131.152 25.5565 131.805 23.9124 132.682C23.2217 133.549 22.638 134.281 22.1905 134.885C21.7332 135.489 21.4122 135.967 21.2468 136.318C20.916 137.02 21.2274 137.185 22.385 136.834C22.9687 136.659 23.747 136.347 24.749 135.908C25.7511 135.47 26.9768 134.885 28.4166 134.183C29.8175 133.491 31.2379 132.77 32.6777 132.019C33.3976 131.639 34.1175 131.259 34.8374 130.869C35.5573 130.479 36.2772 130.07 36.9971 129.66C37.9602 129.114 38.9039 128.549 39.8378 127.984C40.7717 127.409 41.6862 126.824 42.5812 126.229C43.4762 125.625 44.3421 125.011 45.1787 124.387C46.4337 123.441 47.5816 122.467 48.6031 121.472C49.6246 120.478 50.5002 119.455 51.2103 118.402C51.7551 117.593 52.1248 116.872 52.3486 116.238L52.3388 116.219ZM115.34 84.9293C114.708 86.0308 113.978 87.0835 113.161 88.107C112.344 89.1305 111.468 90.0857 110.554 90.9922C109.639 91.8987 108.686 92.737 107.713 93.5363C106.74 94.3356 105.758 95.0764 104.765 95.7782C104.026 96.3046 103.296 96.7919 102.576 97.2598C101.866 97.7179 101.166 98.1468 100.504 98.5465C99.1617 99.336 97.9164 100.009 96.7879 100.564C94.5991 101.636 93.3927 102.017 92.955 101.646C92.5755 101.324 92.7312 100.476 93.1106 99.0436C93.0328 99.1606 92.9452 99.2678 92.8674 99.3848C92.2253 100.252 91.5735 101.042 90.8147 101.87C90.0559 102.699 89.1803 103.566 88.0129 104.58C86.3494 105.399 85.1139 106.013 83.8686 106.627C82.6234 107.241 81.3781 107.855 79.7243 108.674C80.5026 108.021 81.2225 107.368 81.884 106.715C82.5455 106.062 83.1487 105.418 83.7032 104.765C84.8123 103.469 85.7267 102.192 86.4856 100.925C87.2444 99.6577 87.8573 98.4003 88.3437 97.1526C88.8301 95.9049 89.1998 94.6767 89.4722 93.4388C89.7446 92.2107 89.91 90.9825 89.9975 89.764C90.0851 88.5359 90.0753 87.3174 89.9975 86.0795C89.91 84.8416 89.7446 83.6037 89.4916 82.3463C89.2387 81.0888 88.9079 79.8217 88.4799 78.535C88.0518 77.2484 87.5362 75.9422 86.9233 74.6263C86.3007 73.3104 85.5808 71.975 84.7442 70.6299C84.3259 69.9573 83.8686 69.2847 83.3919 68.6121C82.9152 67.9396 82.3996 67.267 81.8451 66.6042C83.2946 65.5027 84.3745 64.6742 85.4641 63.8457C86.5537 63.0171 87.6335 62.1886 89.083 61.0871C90.0753 62.3056 90.9314 63.4753 91.6708 64.606C92.4199 65.7367 93.062 66.8284 93.6359 67.9006C94.2099 68.9728 94.7158 70.0255 95.173 71.0977C95.6303 72.17 96.0291 73.2519 96.3988 74.3826C96.7588 75.5133 97.0798 76.6928 97.3327 77.9599C97.3717 78.1744 97.4106 78.3888 97.4592 78.6033C97.6927 77.3946 97.9359 76.2151 98.218 75.1137C98.5877 73.6321 99.0158 72.2479 99.5411 70.971C100.066 69.6941 100.679 68.5634 101.409 67.5887C102.139 66.6139 102.985 65.7951 103.968 65.1323C104.999 64.4403 106.059 63.9724 107.129 63.7677C108.209 63.5532 109.299 63.5825 110.398 63.8749C111.488 64.1673 112.538 64.6839 113.501 65.4345C114.464 66.185 115.35 67.1695 116.079 68.388C116.566 69.197 116.984 70.0938 117.295 71.0782C117.607 72.0627 117.821 73.1252 117.918 74.2657C118.015 75.4061 117.986 76.6245 117.811 77.9014C117.646 79.1491 117.344 80.3675 116.926 81.5372C116.507 82.7069 115.982 83.8474 115.35 84.9391L115.34 84.9293ZM107.353 75.8447C106.477 75.5231 105.495 75.679 104.454 76.3126C103.413 76.9462 102.489 77.9404 101.613 79.2953C101.175 79.9679 100.767 80.6989 100.378 81.469C99.9886 82.2488 99.6092 83.0676 99.2298 83.9448C98.8504 84.8221 98.4904 85.7189 98.1402 86.6351C97.7802 87.5514 97.43 88.4871 97.0603 89.4326C97.1187 90.8558 97.216 91.9962 97.4689 92.8442C97.7122 93.702 98.0916 94.1991 98.7044 94.3746C99.3173 94.5403 100.144 94.3453 101.244 93.78C102.333 93.2146 103.501 92.3764 104.687 91.2554C105.281 90.6901 105.855 90.0857 106.39 89.4131C106.935 88.7503 107.441 88.0388 107.898 87.259C108.355 86.4889 108.754 85.6994 109.065 84.8806C109.377 84.0618 109.61 83.2235 109.746 82.3658C110.028 80.6015 109.882 79.1394 109.415 78.0184C108.958 76.8975 108.238 76.1664 107.353 75.8447ZM147.979 65.8634C147.736 67.345 147.385 68.6804 146.928 69.967C146.471 71.2537 145.907 72.5014 145.148 73.7978C144.768 74.4411 144.34 75.1039 143.844 75.7862C143.348 76.4686 142.784 77.1606 142.122 77.8722C140.41 78.7202 139.116 79.3538 137.832 79.9874C136.548 80.621 135.254 81.2546 133.542 82.1026C134.826 80.7477 135.711 79.539 136.451 78.3791C136.976 77.5408 137.424 76.722 137.822 75.8642C137.18 76.6733 136.509 77.4628 135.809 78.1939C134.894 79.1589 133.941 80.0459 132.978 80.8842C132.015 81.7224 131.042 82.4925 130.059 83.2235C129.33 83.7694 128.61 84.2665 127.909 84.7344C127.209 85.2023 126.528 85.6311 125.876 86.0308C124.563 86.8301 123.356 87.4929 122.257 88.029C119.99 89.1402 118.726 89.5106 118.249 89.072C117.772 88.6333 118.054 87.4247 118.56 85.2997C118.813 84.2373 119.124 82.9798 119.426 81.508C119.582 80.7769 119.728 79.9874 119.873 79.1491C120.019 78.3108 120.156 77.4141 120.272 76.4686C120.438 75.1819 120.554 73.8953 120.661 72.6281C120.759 71.3609 120.846 70.1035 120.924 68.8656C121.002 67.6277 121.09 66.4092 121.187 65.2103C121.265 64.3135 121.342 63.4363 121.43 62.5882C121.518 61.7402 121.625 60.9214 121.751 60.1319C121.994 58.5431 122.325 57.0712 122.773 55.6968C123.22 54.3224 123.784 53.1235 124.494 52.0903C125.205 51.057 126.07 50.1895 127.102 49.4877C128.094 48.8151 129.145 48.396 130.225 48.2303C131.314 48.0646 132.443 48.1621 133.6 48.5325C134.758 48.8931 135.896 49.4975 136.986 50.326C137.891 51.0181 138.747 51.8758 139.544 52.8798C139.35 51.8368 139.126 50.7939 138.844 49.7119C138.63 48.9029 138.396 48.0646 138.114 47.1776C137.832 46.2906 137.511 45.3353 137.132 44.3118C138.698 43.2689 139.875 42.4793 141.052 41.6995C142.229 40.9197 143.407 40.1302 144.973 39.0872C145.313 39.9645 145.605 40.8028 145.878 41.602C146.15 42.4013 146.383 43.1714 146.597 43.9122C147.025 45.3938 147.356 46.7779 147.629 48.1133C147.901 49.4487 148.105 50.7549 148.251 52.0805C148.397 53.4062 148.494 54.7611 148.514 56.1939C148.533 57.6268 148.475 59.1572 148.28 60.8142C148.3 61.7792 148.28 62.6662 148.212 63.5045C148.154 64.3428 148.057 65.1226 147.93 65.8634H147.979ZM134.923 75.4548C135.575 74.8213 136.207 74.1194 136.82 73.3494C137.433 72.5793 138.027 71.7411 138.581 70.8346C139.136 69.928 139.622 68.9826 140.031 67.9981C140.439 67.0136 140.78 65.9998 141.033 64.9374C140.809 63.1828 140.206 61.7207 139.35 60.59C138.494 59.4593 137.472 58.7283 136.373 58.3969C135.274 58.0654 134.165 58.2311 133.104 58.8842C132.092 59.4983 131.285 60.4925 130.643 61.8474C130.322 62.52 130.049 63.2511 129.806 64.0309C129.563 64.8107 129.368 65.6392 129.184 66.5164C129.008 67.3937 128.863 68.2905 128.736 69.197C128.61 70.1132 128.503 71.0393 128.405 71.975C128.211 73.8075 128.094 75.2794 128.162 76.4198C128.22 77.5505 128.454 78.2621 128.95 78.574C129.446 78.8859 130.215 78.769 131.275 78.2134C132.394 77.6383 133.629 76.722 134.923 75.4451V75.4548ZM179.518 52.7823C179.12 54.0495 178.623 55.2972 178.01 56.5156C177.407 57.734 176.687 58.933 175.831 60.1027C174.975 61.2723 173.993 62.4225 172.835 63.5435C172.261 64.0991 171.638 64.6547 170.977 65.2005C170.315 65.7464 169.595 66.2825 168.837 66.8089C168.068 67.3352 167.261 67.8518 166.385 68.3587C165.509 68.8656 164.576 69.3627 163.574 69.8403C161.91 70.6396 160.665 71.2439 159.419 71.8385C158.174 72.4429 155.265 73.8368 155.265 73.8368C155.265 73.8368 157.046 72.94 157.834 72.5014C158.622 72.053 159.351 71.6144 160.023 71.166C161.375 70.279 162.533 69.3919 163.564 68.4952C164.595 67.5984 165.509 66.6919 166.336 65.7464C167.163 64.8009 167.912 63.8164 168.603 62.7539C169.284 61.7012 169.907 60.5803 170.471 59.3326C169.936 60.0734 169.391 60.7947 168.817 61.4673C167.951 62.481 167.037 63.4265 166.103 64.3038C165.169 65.1811 164.216 65.9901 163.262 66.7504C162.542 67.3157 161.842 67.8421 161.151 68.3295C160.46 68.8168 159.789 69.2555 159.137 69.6649C157.834 70.4837 156.637 71.1562 155.538 71.6923C153.291 72.7938 152.016 73.1252 151.462 72.6086C150.907 72.0822 151.082 70.7468 151.432 68.3782C151.608 67.1988 151.822 65.7951 152.006 64.1673C152.104 63.3485 152.191 62.481 152.269 61.5453C152.347 60.6095 152.405 59.625 152.454 58.5723C152.512 57.1394 152.532 55.7163 152.522 54.3029C152.522 52.8896 152.493 51.4957 152.473 50.1213C152.454 48.7469 152.425 47.4018 152.425 46.0761C152.425 45.0819 152.425 44.1169 152.454 43.1909C152.483 42.2551 152.522 41.3584 152.58 40.4811C152.649 39.6136 152.736 38.7655 152.853 37.9663C152.97 37.1572 153.125 36.3774 153.3 35.6366C153.67 34.1453 154.166 32.8586 154.837 31.7669C155.509 30.6752 156.345 29.7784 157.357 29.0961C158.349 28.4235 159.419 28.0336 160.548 27.9264C161.686 27.8192 162.883 27.9946 164.128 28.4723C165.373 28.9499 166.619 29.681 167.825 30.6654C168.739 31.4062 169.625 32.303 170.461 33.3362C170.442 33.268 170.422 33.1998 170.393 33.1315C169.946 31.7572 169.479 30.4802 168.924 29.1059C168.652 28.4138 168.35 27.7022 168.01 26.9419C167.669 26.1816 167.3 25.3726 166.871 24.4953C168.379 23.4913 169.508 22.731 170.646 21.9805C171.775 21.2299 172.913 20.4696 174.421 19.4657C174.917 20.4794 175.384 21.4736 175.822 22.4484C176.259 23.4231 176.649 24.3881 177.018 25.3239C177.388 26.2694 177.719 27.1856 178.03 28.0921C178.341 28.9986 178.614 29.8856 178.867 30.7532C179.12 31.6207 179.343 32.4785 179.548 33.3167C179.752 34.155 179.927 34.9738 180.073 35.7828C180.375 37.3912 180.589 38.941 180.705 40.4421C180.832 41.9432 180.861 43.3858 180.812 44.7895C180.764 46.1931 180.627 47.5577 180.413 48.8931C180.19 50.2188 179.888 51.5152 179.489 52.7921L179.518 52.7823ZM167.64 58.3676C168.263 57.695 168.866 56.9542 169.449 56.1355C170.033 55.3167 170.588 54.4199 171.094 53.4354C171.599 52.4509 172.037 51.4274 172.397 50.365C172.747 49.3123 173.02 48.2108 173.195 47.0704C173.195 47.0509 173.195 47.0216 173.195 47.0021C173 46.0274 172.718 45.1306 172.368 44.3216C172.008 43.5028 171.58 42.7717 171.084 42.1382C170.092 40.8515 168.953 39.9742 167.776 39.5453C166.599 39.1165 165.471 39.2139 164.42 39.8475C163.379 40.4811 162.601 41.5338 162.036 42.9862C161.754 43.7172 161.521 44.5068 161.336 45.3548C161.151 46.2028 161.005 47.1093 160.888 48.0743C160.772 49.0393 160.694 50.0238 160.636 51.0278C160.577 52.0318 160.548 53.0553 160.529 54.0982C160.509 55.112 160.499 56.0282 160.509 56.8568C160.529 57.6755 160.567 58.4066 160.655 59.0402C160.82 60.3073 161.122 61.1164 161.667 61.4965C162.221 61.8767 163.019 61.7792 164.109 61.2139C165.198 60.6485 166.404 59.7128 167.65 58.3676H167.64Z" fill="black"/>
</g>
<defs>
<clipPath id="clip0_82_258">
<rect width="216" height="137" fill="white"/>
</clipPath>
</defs>
</svg>
