<svg width="297" height="40" viewBox="0 0 297 40" fill="none" xmlns="http://www.w3.org/2000/svg">
<g clip-path="url(#clip0_71_302)">
<path d="M23.9066 1.9989H35.8349C39.5299 1.9989 42.3029 2.50042 44.154 3.4963C46.0051 4.49935 46.927 6.18303 46.927 8.55452C46.927 12.2085 44.7329 14.3937 40.3447 15.1173V15.1961C45.662 15.8624 48.3279 18.1837 48.3279 22.1529C48.3279 25.0618 47.2344 27.0965 45.0545 28.25C42.8747 29.4107 39.7372 29.991 35.6348 29.991H23.9066V29.2316H26.501V2.75835H23.9066V1.9989ZM34.2769 2.75835V15.0815H35.3132C36.6926 15.0815 37.6574 14.6588 38.2077 13.8205C38.7509 12.9822 39.0225 11.6926 39.0225 9.95878V8.08165C39.0225 6.11139 38.7866 4.72862 38.3078 3.94051C37.8289 3.1524 36.9141 2.75835 35.5562 2.75835H34.2769ZM34.2769 15.8409V29.2387H36.1494C37.6145 29.2387 38.6365 28.73 39.2226 27.7198C39.8087 26.7096 40.1017 25.2122 40.1017 23.242V21.1212C40.1017 19.3587 39.7443 18.0405 39.0225 17.1592C38.3006 16.278 37.0285 15.8409 35.1917 15.8409H34.2769Z" fill="#391E00"/>
<path d="M73.1065 29.9982H64.0083L63.5724 27.075C63.1436 28.1425 62.5146 28.9593 61.6784 29.5325C60.8422 30.1056 59.5987 30.3922 57.9477 30.3922C53.8239 30.3922 51.7656 28.164 51.7656 23.7148V11.6711H49.5286V10.9475H59.1841V24.6677C59.1841 26.2654 59.2985 27.3186 59.52 27.8273C59.7416 28.336 60.199 28.5867 60.878 28.5867C61.5569 28.5867 62.1644 28.1712 62.6933 27.3473C63.2222 26.5233 63.4938 25.377 63.4938 23.9083V11.6711H61.657V10.9475H70.9123V29.2674H73.1065V29.9838V29.9982ZM54.9102 6.79917C54.4314 6.21167 54.1955 5.50954 54.1955 4.67845C54.1955 3.84735 54.4528 3.15955 54.9746 2.60071C55.4963 2.04187 56.211 1.76245 57.1258 1.76245C58.0406 1.76245 58.7768 2.00605 59.3199 2.50041C59.8631 2.99476 60.1347 3.70406 60.1347 4.64262C60.1347 5.58119 59.8774 6.31914 59.3557 6.86365C58.8339 7.40816 58.0835 7.68042 57.1044 7.68042C56.1252 7.68042 55.3891 7.38667 54.9102 6.79917ZM62.6075 6.79917C62.1287 6.21167 61.8928 5.50954 61.8928 4.67845C61.8928 3.84735 62.1501 3.15955 62.6719 2.60071C63.1936 2.04187 63.9083 1.76245 64.8231 1.76245C65.7379 1.76245 66.4741 2.00605 67.0172 2.50041C67.5604 2.99476 67.832 3.70406 67.832 4.64262C67.832 5.58119 67.5747 6.31914 67.053 6.86365C66.5312 7.40816 65.7808 7.68042 64.8017 7.68042C63.8225 7.68042 63.0864 7.38667 62.6075 6.79917Z" fill="#391E00"/>
<path d="M89.9019 8.87692L91.0169 8.19628C91.1741 7.37235 90.8596 6.9568 90.0592 6.9568C88.9157 6.9568 88.3439 7.83805 88.3439 9.60054C88.3439 10.2955 88.4368 11.0908 88.6226 12.0007C90.6452 13.362 91.6529 15.103 91.6529 17.2237C91.6529 19.3444 90.924 20.9923 89.4588 22.1673C87.9937 23.3423 86.014 23.9298 83.5125 23.9298C82.4762 23.9298 81.397 23.8223 80.2821 23.6073C79.11 24.3525 78.5239 24.9113 78.5239 25.2839C78.5239 25.6564 79.3744 25.8427 81.0754 25.8427H85.142C91.1812 25.8427 94.1973 28.0136 94.1973 32.3625C94.1973 34.7125 93.2825 36.5681 91.46 37.9437C89.6375 39.3193 86.8001 40.0071 82.9408 40.0071C76.3727 40.0071 73.0851 38.5814 73.0851 35.7299C73.0851 34.1823 74.1071 33.1148 76.1583 32.5273L78.5525 33.6091C78.3381 34.3829 78.2309 35.1137 78.2309 35.8087C78.2309 38.1013 79.9319 39.2477 83.341 39.2477C85.4136 39.2477 87.0145 38.8608 88.1295 38.087C89.2444 37.3132 89.809 36.3532 89.809 35.2068C89.809 34.0605 89.4731 33.2939 88.7941 32.907C88.1152 32.5201 86.7644 32.3267 84.7418 32.3267H80.8681C78.7169 32.3267 77.1732 31.9684 76.2369 31.2448C75.3078 30.5212 74.8432 29.6399 74.8432 28.5867C74.8432 27.5335 75.172 26.6523 75.8438 25.943C76.5085 25.2337 77.6949 24.3596 79.3959 23.3208C76.3084 22.4395 74.7646 20.4119 74.7646 17.238C74.7646 15.2391 75.4793 13.627 76.9159 12.3947C78.3524 11.1696 80.5037 10.5534 83.3767 10.5534C85.1063 10.5534 86.5786 10.8902 87.8079 11.5565C87.6506 10.8329 87.572 10.1809 87.572 9.59338C87.572 8.10314 87.9722 7.02128 88.7656 6.35497C89.566 5.68867 90.4523 5.35193 91.4385 5.35193C92.4248 5.35193 93.211 5.60985 93.8113 6.13287C94.4117 6.65589 94.7119 7.36518 94.7119 8.27509C94.7119 9.18499 94.476 9.85847 93.9972 10.2955C93.5183 10.7325 92.9394 10.9547 92.2604 10.9547C91.5815 10.9547 91.024 10.7755 90.588 10.4173C90.1521 10.0591 89.9162 9.54322 89.8876 8.87692H89.9019ZM81.4471 16.3639V18.5276C81.4471 20.3116 81.5971 21.5296 81.9045 22.1673C82.2118 22.8049 82.6763 23.1273 83.2981 23.1273C83.9199 23.1273 84.3773 22.8121 84.656 22.1888C84.9348 21.5654 85.0777 20.2758 85.0777 18.327V16.3639C85.0777 14.2862 84.9419 12.9178 84.6775 12.2658C84.4131 11.6138 83.9628 11.2842 83.341 11.2842C82.7192 11.2842 82.2404 11.621 81.9259 12.3016C81.6043 12.9822 81.4471 14.3363 81.4471 16.3639Z" fill="#391E00"/>
<path d="M94.5688 10.9619H104.346V29.2818H106.583V29.9982H94.7332V29.2818H96.9273V11.6783H94.576V10.9547L94.5688 10.9619Z" fill="#391E00"/>
<path d="M107.462 10.9618H117.082V14.6444C117.503 13.4193 118.161 12.4305 119.04 11.6854C119.919 10.9403 121.249 10.5677 123.028 10.5677C127.152 10.5677 129.21 12.7959 129.21 17.2452V29.2889H131.447V30.0053H120.155V29.2889H121.792V16.2851C121.792 14.6874 121.684 13.6485 121.47 13.1828C121.256 12.7171 120.87 12.4807 120.312 12.4807C119.462 12.4807 118.711 13.0395 118.054 14.1572C117.396 15.2749 117.075 16.6362 117.075 18.2339V29.2745H118.79V29.991H107.455V29.2745H109.649V11.6711H107.455V10.9475L107.462 10.9618Z" fill="#391E00"/>
<path d="M132.877 11.922L132.519 11.3631C134.992 9.73675 136.229 8.11039 136.229 6.48402C136.229 5.63144 135.871 5.15141 135.149 5.04394L133.477 6.60582C132.941 6.41954 132.462 6.08281 132.019 5.58845C131.583 5.09409 131.362 4.4636 131.362 3.68983C131.362 2.91605 131.669 2.25691 132.276 1.7124C132.891 1.16789 133.691 0.89563 134.692 0.89563C135.693 0.89563 136.515 1.23237 137.165 1.913C137.815 2.59364 138.144 3.53221 138.144 4.73586C138.144 7.35094 136.386 9.75108 132.877 11.9363V11.922Z" fill="#391E00"/>
<path d="M172.5 1.9989L172.9 12.0365H172.142C170.97 8.49003 169.934 6.0684 169.033 4.77877C168.126 3.48198 166.825 2.83716 165.124 2.83716H164.645V29.1599H168.04V29.9982H153.474V29.1599H156.869V2.83716H156.347C154.646 2.83716 153.331 3.51063 152.395 4.85758C151.466 6.20453 150.437 8.5975 149.322 12.0365H148.564L148.965 1.9989H172.507H172.5Z" fill="#391E00"/>
<path d="M175.158 27.7414C173.443 25.9717 172.585 23.4999 172.585 20.3404C172.585 17.1808 173.55 14.7591 175.48 13.0826C177.41 11.3989 179.861 10.5607 182.841 10.5607C188.88 10.5607 191.782 13.5985 191.539 19.6812H180.283V21.2431C180.283 23.8582 180.611 25.8284 181.283 27.1611C181.955 28.4937 183.106 29.16 184.757 29.16C187.844 29.16 189.867 27.505 190.824 24.2021L191.539 24.3239C191.032 26.244 190.124 27.7414 188.802 28.8018C187.487 29.8693 185.507 30.3995 182.877 30.3995C179.446 30.3995 176.874 29.5111 175.158 27.7414ZM180.326 18.8788H184.435V16.9157C184.435 14.752 184.306 13.2832 184.056 12.4951C183.806 11.707 183.299 11.313 182.541 11.313C181.783 11.313 181.226 11.7357 180.869 12.5739C180.511 13.4122 180.333 14.8594 180.333 16.9157V18.8788H180.326Z" fill="#391E00"/>
<path d="M193.054 10.9618H202.674V14.6444C203.096 13.4193 203.753 12.4305 204.632 11.6854C205.511 10.9403 206.841 10.5677 208.62 10.5677C212.744 10.5677 214.803 12.7959 214.803 17.2452V29.2889H217.04V30.0053H205.747V29.2889H207.384V16.2851C207.384 14.6874 207.277 13.6485 207.062 13.1828C206.848 12.7171 206.462 12.4807 205.905 12.4807C205.054 12.4807 204.304 13.0395 203.646 14.1572C202.989 15.2749 202.667 16.6362 202.667 18.2339V29.2745H204.382V29.991H193.047V29.2745H195.241V11.6711H193.047V10.9475L193.054 10.9618Z" fill="#391E00"/>
<path d="M231.119 29.9982L230.683 27.1968C229.775 29.3319 227.946 30.3994 225.173 30.3994C222.886 30.3994 221.106 29.5755 219.848 27.9205C218.583 26.2655 217.954 23.8008 217.954 20.5194C217.954 13.8778 220.592 10.5606 225.859 10.5606C228.196 10.5606 229.74 11.2126 230.49 12.5237V0.716461H228.053V0H238.03V29.2817H239.989V29.9982H231.126H231.119ZM226.095 27.3043C226.388 28.2214 226.924 28.6871 227.71 28.6871C228.496 28.6871 229.175 28.3432 229.747 27.6482C230.319 26.9533 230.605 25.9287 230.605 24.5674V15.8481C230.605 14.7018 230.376 13.7274 229.926 12.925C229.475 12.1225 228.811 11.7285 227.932 11.7285C227.052 11.7285 226.452 12.316 226.138 13.491C225.816 14.666 225.659 16.715 225.659 19.6525V21.7303C225.659 24.5316 225.802 26.3872 226.095 27.3115V27.3043Z" fill="#391E00"/>
<path d="M243.791 27.7414C242.075 25.9717 241.218 23.4999 241.218 20.3404C241.218 17.1808 242.183 14.7591 244.112 13.0826C246.042 11.3989 248.493 10.5607 251.474 10.5607C257.513 10.5607 260.415 13.5985 260.172 19.6812H248.915V21.2431C248.915 23.8582 249.244 25.8284 249.916 27.1611C250.587 28.4937 251.738 29.16 253.389 29.16C256.477 29.16 258.499 27.505 259.457 24.2021L260.172 24.3239C259.664 26.244 258.756 27.7414 257.434 28.8018C256.119 29.8693 254.14 30.3995 251.509 30.3995C248.079 30.3995 245.506 29.5111 243.791 27.7414ZM248.958 18.8788H253.067V16.9157C253.067 14.752 252.939 13.2832 252.689 12.4951C252.439 11.707 251.931 11.313 251.174 11.313C250.416 11.313 249.858 11.7357 249.501 12.5739C249.144 13.4122 248.965 14.8594 248.965 16.9157V18.8788H248.958Z" fill="#391E00"/>
<path d="M274.937 12.0795C273.951 12.0795 273.086 12.7171 272.343 13.9996C271.6 15.2821 271.228 16.801 271.228 18.5563V29.2745H274.058V29.991H261.608V29.2745H263.802V11.6711H261.608V10.9475H271.228V14.7877C271.571 13.4264 272.236 12.3804 273.222 11.6496C274.208 10.9188 275.323 10.5463 276.574 10.5463C277.825 10.5463 278.84 10.8973 279.626 11.6066C280.412 12.3159 280.805 13.3118 280.805 14.6086C280.805 15.9054 280.512 16.8941 279.926 17.5891C279.34 18.284 278.439 18.6279 277.231 18.6279C276.024 18.6279 275.13 18.2267 274.558 17.4243C273.987 16.6219 273.915 15.5185 274.337 14.1071H275.773C276.438 12.7458 276.159 12.0652 274.937 12.0652V12.0795Z" fill="#391E00"/>
<path d="M281.798 30.3994V23.2419H282.277C282.97 25.5633 283.9 27.1896 285.072 28.121C286.244 29.0524 287.702 29.5181 289.46 29.5181C292.176 29.5181 293.534 28.6512 293.534 26.9174C293.534 26.1723 293.198 25.6134 292.533 25.2409C291.497 24.6534 290.167 24.202 288.545 23.8796C286.737 23.3996 285.222 22.7619 283.992 21.9595C282.527 20.9994 281.798 19.4805 281.798 17.3956C281.798 15.3107 282.434 13.6557 283.714 12.4162C284.993 11.1767 286.694 10.5534 288.824 10.5534C290.125 10.5534 291.468 10.8615 292.855 11.4705C293.362 11.6854 293.748 11.7929 294.013 11.7929C294.277 11.7929 294.506 11.6998 294.691 11.5135C294.877 11.3272 295.106 10.9833 295.37 10.4746H295.806V16.5932H295.328C293.97 13.1255 291.868 11.3917 289.024 11.3917C287.773 11.3917 286.844 11.6138 286.229 12.0508C285.615 12.4879 285.315 13.0467 285.315 13.713C285.315 14.1142 285.408 14.4295 285.593 14.6516C285.779 14.8808 285.922 15.0456 286.029 15.1531C286.137 15.2606 286.308 15.3752 286.551 15.4898C286.794 15.6045 286.987 15.7048 287.151 15.7693C287.309 15.8337 287.559 15.9197 287.888 16.0272C288.216 16.1346 288.466 16.1991 288.624 16.2278C290.432 16.6792 291.74 17.0732 292.533 17.4099C293.334 17.7467 294.091 18.1479 294.806 18.6279C296.271 19.6453 297 21.2717 297 23.5285C297 25.7854 296.335 27.4906 295.006 28.6512C293.677 29.8119 291.854 30.3922 289.539 30.3922C287.888 30.3922 286.294 30.0053 284.75 29.2315C284.428 29.0166 284.178 28.9091 283.992 28.9091C283.406 28.9091 282.835 29.4035 282.277 30.3851H281.798V30.3994Z" fill="#391E00"/>
<path d="M9.64128 30.3994C28.738 30.3994 0 21.458 0 10.6036C6.24646 10.6036 9.64128 0.881226 9.64128 0.881226C9.64128 0.881226 13.0289 10.6036 19.2826 10.6036C19.2826 21.458 -9.45546 30.4066 9.64128 30.4066V30.3994Z" fill="#391E00"/>
</g>
<defs>
<clipPath id="clip0_71_302">
<rect width="297" height="40" fill="white"/>
</clipPath>
</defs>
</svg>
